<?xml version="1.0" standalone="no"?>
<!DOCTYPE svg PUBLIC "-//W3C//DTD SVG 20010904//EN"
 "http://www.w3.org/TR/2001/REC-SVG-20010904/DTD/svg10.dtd">
<svg version="1.0" xmlns="http://www.w3.org/2000/svg"
 width="462.000000pt" height="344.000000pt" viewBox="0 0 462.000000 344.000000"
 preserveAspectRatio="xMidYMid meet">
<metadata>
Created by potrace 1.16, written by Peter Selinger 2001-2019
</metadata>
<g transform="translate(0.000000,344.000000) scale(0.100000,-0.100000)"
fill="#000000" stroke="none">
<path d="M592 3430 c-77 -16 -148 -73 -176 -142 -20 -47 -21 -167 -2 -212 22
-52 72 -102 128 -126 42 -18 65 -21 132 -18 90 4 135 21 186 71 87 85 95 238
16 341 -51 67 -182 107 -284 86z"/>
<path d="M2015 2769 c-141 -21 -267 -91 -348 -195 l-35 -45 -6 38 c-3 21 -8
68 -12 106 l-6 67 -216 0 -215 0 6 -107 c4 -58 7 -420 7 -803 l0 -697 48 3
c26 2 119 8 207 14 88 6 179 13 203 16 l42 6 0 492 0 491 26 55 c30 64 65 105
114 130 129 66 253 10 301 -137 21 -65 23 -88 28 -523 l6 -456 240 37 c132 21
241 38 243 38 1 1 2 189 2 420 0 489 0 492 85 577 130 131 305 79 367 -108 6
-18 14 -100 17 -182 l6 -149 89 -39 88 -39 48 45 c53 49 178 134 228 155 l32
13 0 117 c0 269 -87 477 -240 580 -107 71 -246 101 -383 82 -152 -21 -253 -74
-365 -189 -34 -35 -64 -63 -65 -61 -73 118 -119 162 -219 209 -98 45 -197 57
-323 39z"/>
<path d="M410 2042 l0 -698 32 -31 c82 -77 249 -156 359 -168 30 -3 69 -8 87
-11 l32 -5 0 806 0 805 -255 0 -255 0 0 -698z"/>
<path d="M3830 2001 c-165 -35 -353 -136 -464 -249 l-48 -50 -103 36 -103 36
-119 -54 c-65 -29 -120 -55 -122 -57 -11 -8 13 -13 119 -26 103 -13 125 -19
208 -61 l93 -47 52 47 c225 203 499 307 802 307 127 -1 326 -31 349 -53 14
-14 -83 -136 -181 -231 -209 -201 -460 -311 -759 -334 l-92 -7 -7 98 c-3 55
-9 106 -13 115 -6 14 -38 -1 -192 -88 -102 -57 -189 -109 -195 -115 -7 -6 8
-8 45 -4 30 3 85 8 123 11 l67 7 0 -138 0 -138 -67 -70 c-38 -38 -61 -67 -53
-64 8 3 70 20 138 39 l122 34 0 71 0 71 143 6 c252 10 448 77 652 222 85 60
216 200 280 299 65 99 119 211 112 229 -7 20 -128 80 -231 116 -176 62 -386
78 -556 42z"/>
<path d="M310 1718 c-30 -17 -89 -65 -130 -107 -155 -156 -218 -360 -159 -517
43 -115 186 -218 404 -293 146 -49 256 -64 430 -58 238 9 408 56 483 133 91
92 200 125 325 99 l75 -15 319 89 c490 138 754 209 801 217 23 4 45 11 48 15
7 12 -13 11 -56 -1 -51 -15 -422 -76 -670 -110 -727 -99 -1317 -127 -1523 -72
-203 55 -340 189 -340 332 0 56 25 123 57 149 21 17 23 171 4 171 -7 0 -38
-14 -68 -32z"/>
<path d="M2794 900 c-41 -16 -74 -68 -74 -116 0 -86 47 -134 133 -134 103 0
160 117 102 206 -29 44 -108 66 -161 44z"/>
<path d="M1530 891 c-77 -24 -148 -90 -168 -160 -19 -62 -20 -61 73 -61 65 0
85 3 85 14 0 21 37 63 61 69 28 8 79 -42 79 -76 0 -14 -12 -39 -26 -56 -21
-25 -33 -31 -65 -31 -36 0 -39 -2 -39 -27 0 -16 -3 -52 -6 -80 l-7 -53 80 0
80 0 72 119 c39 66 71 130 71 143 -1 38 -35 102 -75 141 -55 54 -147 78 -215
58z"/>
<path d="M2395 876 c-86 -37 -131 -106 -141 -217 l-6 -74 -67 0 -68 0 65 105
c36 58 76 122 89 142 12 21 23 40 23 43 0 3 -41 4 -91 3 l-92 -3 -211 -335
c-220 -348 -246 -380 -308 -380 -46 0 -85 29 -115 87 l-28 53 -79 0 -78 0 7
-37 c17 -97 83 -186 169 -231 41 -21 65 -26 126 -26 91 -1 154 24 217 86 l41
41 34 -38 c35 -40 81 -65 122 -65 18 0 37 16 70 58 25 31 46 60 46 63 0 4 -18
9 -39 13 -106 17 -163 150 -100 230 59 75 177 75 234 0 9 -13 14 -44 15 -95 0
-60 5 -85 26 -126 51 -103 152 -167 264 -167 107 0 189 47 251 143 27 42 29
51 29 150 0 59 -3 143 -7 189 l-6 82 -73 0 -74 0 0 -168 0 -168 -32 -31 c-58
-55 -133 -56 -188 -2 l-30 31 0 217 c0 240 1 245 66 276 24 11 47 15 69 11 31
-6 36 -3 79 51 25 32 46 62 46 66 0 33 -193 50 -255 23z"/>
</g>
</svg>
